<?xml version="1.0" encoding="UTF-8"?> <svg xmlns="http://www.w3.org/2000/svg" viewBox="0 0 64 64"><g id="Layer_22" data-name="Layer 22"><path d="M27,22a1,1,0,0,0,1-1V20a1,1,0,0,0-2,0v1A1,1,0,0,0,27,22Z"></path><path d="M37,22a1,1,0,0,0,1-1V20a1,1,0,0,0-2,0v1A1,1,0,0,0,37,22Z"></path><path d="M47.449,40.8l-2.267-17A3.988,3.988,0,0,0,44,16V12a11.96,11.96,0,0,0-1.928-6.526A1,1,0,1,0,40.4,6.563,9.963,9.963,0,0,1,42,12v5.89L35.166,12.3a5,5,0,0,0-6.332,0L22,17.89V12A10,10,0,0,1,37.746,3.814,1,1,0,1,0,38.9,2.178,12,12,0,0,0,20,12v4a3.988,3.988,0,0,0-1.182,7.8l-2.267,17A13.009,13.009,0,0,0,8,53V63a1,1,0,0,0,1,1H55a1,1,0,0,0,1-1V53A13.009,13.009,0,0,0,47.449,40.8ZM41.5,40l-2.7-3.6a1.036,1.036,0,0,0-1.6,0L36,38V33.3a12.046,12.046,0,0,0,7.416-7.616l1.938,14.54A13.037,13.037,0,0,0,43,40Zm-1.557,1.258-.571,3.427-3.1-3.717L38,38.667ZM32,45.462,30,40.8V33.819a11.14,11.14,0,0,0,4,0V40.8ZM46,20a2,2,0,0,1-2,2V18A2,2,0,0,1,46,20ZM30.1,13.846a3,3,0,0,1,3.8,0L42,20.474V22a10,10,0,0,1-20,0V20.474ZM18,20a2,2,0,0,1,2-2v4A2,2,0,0,1,18,20Zm2.584,5.684A12.046,12.046,0,0,0,28,33.3V38l-1.2-1.6a1.036,1.036,0,0,0-1.6,0L22.5,40H21a13.037,13.037,0,0,0-2.354.224Zm7.142,15.284-3.1,3.717-.571-3.427L26,38.667ZM21,42h1.153l.861,5.164a1,1,0,0,0,.724.8A1.026,1.026,0,0,0,24,48a1,1,0,0,0,.768-.359l3.956-4.747L31,48.205v4.607a1,1,0,0,0,2,0V48.2l2.276-5.31,3.956,4.747A1,1,0,0,0,40,48a1.026,1.026,0,0,0,.262-.035,1,1,0,0,0,.724-.8L41.847,42H43A11.013,11.013,0,0,1,54,53v1H48V53a1,1,0,0,0-2,0v1.508a6.11,6.11,0,0,0,.03.734L47.719,62H33V56.74a1,1,0,0,0-2,0V62H16.281l1.689-6.758a6.118,6.118,0,0,0,.03-.734V53a1,1,0,0,0-2,0v1H10V53A11.013,11.013,0,0,1,21,42ZM10,56h5.719l-1.5,6H10Zm44,6H49.781l-1.5-6H54Z"></path></g></svg> 