<svg xmlns="http://www.w3.org/2000/svg" viewBox="0 0 64 64" fill="none">
  <defs>
    <linearGradient id="bg" x1="8" y1="6" x2="56" y2="58" gradientUnits="userSpaceOnUse">
      <stop stop-color="#0F172A" />
      <stop offset="1" stop-color="#1E293B" />
    </linearGradient>
    <linearGradient id="accent" x1="34" y1="16" x2="50" y2="46" gradientUnits="userSpaceOnUse">
      <stop stop-color="#60A5FA" />
      <stop offset="1" stop-color="#2563EB" />
    </linearGradient>
  </defs>
  <rect x="4" y="4" width="56" height="56" rx="16" fill="url(#bg)" />
  <circle cx="49" cy="15" r="8" fill="#2563EB" opacity=".18" />
  <path
    d="M14 18.5C14 17.12 15.12 16 16.5 16H34.5C35.88 16 37 17.12 37 18.5C37 19.88 35.88 21 34.5 21H28V44.5C28 45.88 26.88 47 25.5 47H22.5C21.12 47 20 45.88 20 44.5V21H16.5C15.12 21 14 19.88 14 18.5Z"
    fill="white"
  />
  <path
    d="M39 19.5C39 18.12 40.12 17 41.5 17H49.5C50.88 17 52 18.12 52 19.5C52 20.88 50.88 22 49.5 22H45.85L51.13 22.02C52.11 22.02 53 22.58 53.43 23.46C53.85 24.35 53.73 25.4 53.11 26.16L44.5 36.7H50.5C51.88 36.7 53 37.82 53 39.2C53 40.58 51.88 41.7 50.5 41.7H41.5C40.53 41.7 39.64 41.14 39.21 40.26C38.78 39.39 38.9 38.35 39.51 37.58L48.13 27H41.5C40.12 27 39 25.88 39 24.5C39 23.12 40.12 22 41.5 22H45.15L39.87 21.98C38.89 21.98 38 21.42 37.57 20.54C37.15 19.65 37.27 18.6 37.89 17.84L38.43 17.18C38.58 17.02 38.78 16.9 39 16.84V19.5Z"
    fill="url(#accent)"
  />
  <path d="M39 21.9 49.2 21.95 41 31.95h7.45L39 43.2h12" stroke="url(#accent)" stroke-linecap="round" stroke-linejoin="round" stroke-width="3.6" />
</svg>
